<svg width="305" height="340" viewBox="0 0 305 340" fill="none" xmlns="http://www.w3.org/2000/svg">
<g clip-path="url(#clip0)">
<path d="M203.769 337.442C203.771 336.037 183.127 334.865 157.658 334.825C132.19 334.785 111.542 335.891 111.54 337.296C111.537 338.701 132.182 339.872 157.65 339.912C183.119 339.953 203.767 338.846 203.769 337.442Z" fill="#E6E6E6"/>
<path d="M184.677 316.375L184.21 326.004C184.21 326.004 191.332 336.902 182.454 336.902C182.365 336.902 182.542 336.903 182.454 336.902C176.033 336.883 170.231 339.718 170.99 333.462L172.061 324.628L173.93 315L184.677 316.375Z" fill="#2F2E41"/>
<path d="M136.363 316.375L136.831 326.004C136.831 326.004 129.709 336.902 138.587 336.902C138.675 336.902 138.499 336.903 138.587 336.902C145.007 336.883 150.81 339.718 150.051 333.462L148.979 324.628L147.11 315L136.363 316.375Z" fill="#2F2E41"/>
<path d="M250.577 50.7334L227.943 79.8478L261.442 121.76L283.775 93.9254L250.577 50.7334Z" fill="black"/>
<path opacity="0.1" d="M250.577 50.7334L227.943 79.8478L261.442 121.76L283.775 93.9254L250.577 50.7334Z" fill="black"/>
<path d="M228.865 80.0831C229.366 79.1437 229.987 78.2797 230.71 77.5146L251.493 55.5468C251.493 55.5468 258.734 54.2886 260.242 58.0634L233.693 80.7122L228.865 80.0831Z" fill="#F2F2F2"/>
<path d="M227.943 79.8121L258.696 129.632C258.696 129.632 261.711 131.868 264.726 130.59L296.233 108.075L262.766 54.4231L232.616 79.333L227.943 79.8121Z" fill="black"/>
<path d="M259.017 62.1862L239.712 76.893L239.998 77.3138L259.302 62.607L259.017 62.1862Z" fill="#3F3D56"/>
<path d="M239.457 82.3975L239.049 82.6834L264.384 123.293L264.791 123.007L239.457 82.3975Z" fill="#3F3D56"/>
<path d="M287.965 108.229L267.461 124.224L267.751 124.641L288.255 108.647L287.965 108.229Z" fill="#3F3D56"/>
<path d="M262.677 62.8872L262.276 63.1831L288.515 103.153L288.916 102.857L262.677 62.8872Z" fill="#3F3D56"/>
<path d="M254.572 55.0438L230.706 78.2658L230.91 78.5013L254.776 55.2792L254.572 55.0438Z" fill="#3F3D56"/>
<path d="M256.56 55.2429L231.617 78.5884L231.817 78.8282L256.76 55.4827L256.56 55.2429Z" fill="#3F3D56"/>
<path d="M258.12 55.7082L232.227 78.5905L232.42 78.8363L258.313 55.9539L258.12 55.7082Z" fill="#3F3D56"/>
<path d="M157.259 97.1584C165.203 97.1584 171.643 90.8394 171.643 83.0445C171.643 75.2497 165.203 68.9307 157.259 68.9307C149.315 68.9307 142.875 75.2497 142.875 83.0445C142.875 90.8394 149.315 97.1584 157.259 97.1584Z" fill="#A0616A"/>
<path d="M142.486 108.602L166.977 108.221C164.871 102.525 163.958 97.1918 165.422 92.5809L146.762 90.6736C149.284 96.6498 147.858 102.626 142.486 108.602Z" fill="#A0616A"/>
<path d="M121.105 203.203L125.172 213.844C125.521 214.757 125.654 215.736 125.561 216.707C125.469 217.678 125.153 218.616 124.637 219.45C124.122 220.283 123.42 220.992 122.585 221.521C121.75 222.05 120.804 222.386 119.817 222.504V222.504C118.873 222.617 117.916 222.527 117.011 222.242C116.106 221.956 115.274 221.481 114.575 220.849C113.875 220.217 113.324 219.444 112.959 218.582C112.593 217.721 112.423 216.792 112.46 215.859L112.941 203.584L116.44 140.644L130.823 144.84L121.105 203.203Z" fill="#A0616A"/>
<path d="M136.266 321.453L147.929 320.309L158.425 220.368L173.198 322.217L184.083 321.835L186.804 210.069H134.711L136.266 321.453Z" fill="black"/>
<path d="M174.364 77.7042C174.364 77.7042 170.476 86.0962 167.755 86.4776C165.034 86.8591 160.369 91.0551 161.146 92.9624C161.924 94.8696 161.535 100.591 153.76 99.8285C145.985 99.0656 146.374 98.3027 146.374 98.3027C146.374 98.3027 133.933 75.034 146.762 68.9307C159.591 62.8275 170.865 67.4049 174.364 77.7042Z" fill="#2F2E41"/>
<path d="M130.435 214.646L188.359 211.976C177.556 177.961 177.476 150.128 191.08 124.499C191.08 121.817 190.28 119.195 188.778 116.955C187.275 114.715 185.137 112.956 182.628 111.896L165.811 104.787L144.43 105.932L130.321 113.546C127.559 115.037 125.279 117.261 123.745 119.963C122.21 122.666 121.481 125.738 121.642 128.828C133.994 157.76 134.7 186.289 130.435 214.646Z" fill="#2F2E41"/>
<path d="M140.931 148.273L108.665 142.933L113.981 129.982C115.85 125.428 118.698 121.324 122.332 117.949C125.965 114.574 130.298 112.008 135.034 110.426L138.21 109.365L140.931 148.273Z" fill="#2F2E41"/>
<path d="M242.145 119.158L252.077 115.097C253.082 114.686 253.984 114.065 254.719 113.277C255.454 112.489 256.005 111.553 256.334 110.535C256.663 109.516 256.761 108.44 256.623 107.38C256.484 106.321 256.111 105.304 255.531 104.4V104.4C254.906 103.427 254.057 102.612 253.053 102.02C252.048 101.428 250.916 101.075 249.747 100.991C248.579 100.907 247.406 101.092 246.324 101.534C245.242 101.975 244.281 102.66 243.518 103.532L236.147 111.956L207.258 132.298L187.619 124.299L185.279 140.282L209.815 146.552L242.145 119.158Z" fill="#A0616A"/>
<path d="M189.79 146.472L205.779 131.707L201.547 126.631C197.764 117.417 189.067 113.627 179.483 110.426L176.308 109.365L173.802 134.475L189.79 146.472Z" fill="#2F2E41"/>
</g>
<defs>
<clipPath id="clip0">
<rect width="305" height="339.914" fill="white"/>
</clipPath>
</defs>
</svg>
